<?xml version="1.0" encoding="UTF-8"?>
<svg xmlns="http://www.w3.org/2000/svg" xmlns:xlink="http://www.w3.org/1999/xlink" width="1920" height="1080" viewBox="0 0 1920 1080">
<defs>
<g>
<g id="glyph-0-0">
<path d="M 1.511719 -2.269531 L 2.296875 -2.269531 C 2.59375 -2.269531 2.820312 -2.347656 2.976562 -2.507812 C 3.128906 -2.667969 3.207031 -2.898438 3.207031 -3.203125 C 3.207031 -3.507812 3.128906 -3.738281 2.976562 -3.898438 C 2.820312 -4.054688 2.59375 -4.136719 2.296875 -4.136719 L 1.511719 -4.136719 L 1.511719 -2.269531 M 0.335938 0 L 0.335938 -0.316406 L 0.902344 -0.316406 L 0.902344 -4.136719 L 0.335938 -4.136719 L 0.335938 -4.453125 L 2.445312 -4.453125 C 2.890625 -4.453125 3.242188 -4.34375 3.503906 -4.117188 C 3.761719 -3.890625 3.894531 -3.585938 3.894531 -3.203125 C 3.894531 -2.820312 3.761719 -2.515625 3.503906 -2.289062 C 3.242188 -2.0625 2.890625 -1.949219 2.445312 -1.949219 L 1.511719 -1.949219 L 1.511719 -0.316406 L 2.199219 -0.316406 L 2.199219 0 Z "/>
</g>
<g id="glyph-0-1">
<path d="M 1.511719 -0.316406 L 2.078125 -0.316406 L 2.078125 0 L 0.335938 0 L 0.335938 -0.316406 L 0.902344 -0.316406 L 0.902344 -4.136719 L 0.335938 -4.136719 L 0.335938 -4.453125 L 2.078125 -4.453125 L 2.078125 -4.136719 L 1.511719 -4.136719 Z "/>
</g>
<g id="glyph-0-2">
<path d="M 1.511719 -0.316406 L 2.402344 -0.316406 C 2.761719 -0.316406 3.023438 -0.394531 3.1875 -0.550781 C 3.351562 -0.703125 3.433594 -0.949219 3.433594 -1.289062 C 3.433594 -1.625 3.351562 -1.871094 3.1875 -2.023438 C 3.023438 -2.179688 2.761719 -2.253906 2.402344 -2.253906 L 1.511719 -2.253906 L 1.511719 -0.316406 M 1.511719 -2.570312 L 2.269531 -2.570312 C 2.59375 -2.570312 2.832031 -2.632812 2.980469 -2.761719 C 3.132812 -2.886719 3.207031 -3.082031 3.207031 -3.355469 C 3.207031 -3.625 3.132812 -3.824219 2.980469 -3.949219 C 2.832031 -4.074219 2.59375 -4.136719 2.269531 -4.136719 L 1.511719 -4.136719 L 1.511719 -2.570312 M 0.335938 0 L 0.335938 -0.316406 L 0.902344 -0.316406 L 0.902344 -4.136719 L 0.335938 -4.136719 L 0.335938 -4.453125 L 2.535156 -4.453125 C 2.984375 -4.453125 3.324219 -4.363281 3.550781 -4.179688 C 3.78125 -3.996094 3.894531 -3.71875 3.894531 -3.355469 C 3.894531 -3.089844 3.816406 -2.878906 3.65625 -2.722656 C 3.5 -2.5625 3.265625 -2.46875 2.960938 -2.433594 C 3.339844 -2.382812 3.628906 -2.261719 3.824219 -2.070312 C 4.019531 -1.875 4.117188 -1.613281 4.117188 -1.289062 C 4.117188 -0.847656 3.976562 -0.523438 3.699219 -0.3125 C 3.421875 -0.105469 2.988281 0 2.394531 0 Z "/>
</g>
</g>
</defs>
<g fill="rgb(100%, 100%, 100%)" fill-opacity="1">
<use xlink:href="#glyph-0-0" x="30" y="25.671875"/>
<use xlink:href="#glyph-0-1" x="34" y="25.671875"/>
<use xlink:href="#glyph-0-2" x="36" y="25.671875"/>
</g>
</svg>
